<svg xmlns="http://www.w3.org/2000/svg" viewBox="0 0 47.5 47.5"><defs><clipPath id="a"><path d="M0 38h38V0H0v38Z"/></clipPath></defs><g clip-path="url(#a)" transform="matrix(1.25 0 0 -1.25 0 47.5)"><path fill="#3b88c3" d="M37 5a4 4 0 0 0-4-4H5a4 4 0 0 0-4 4v28a4 4 0 0 0 4 4h28a4 4 0 0 0 4-4V5Z"/><path fill="#fff" d="M17.39 22.51c.744.155 1.551.31 2.326.31 3.752 0 6.418-2.977 6.418-6.604 0-5.178-2.852-8.589-8.217-8.589-2.201 0-6.821 1.427-6.821 4.155a2.13 2.13 0 0 0 2.108 2.108c1.241 0 2.729-1.984 4.806-1.984 2.171 0 3.288 2.109 3.288 4.062 0 1.86-1.055 3.131-2.977 3.131-1.799 0-2.078-1.023-3.66-1.023-1.209 0-1.829.93-1.829 1.457 0 .404.062.713.093 1.055l.776 6.542c.34 2.418.93 2.945 2.418 2.945h7.472c1.427 0 2.263-.836 2.263-1.953 0-2.139-1.611-2.325-2.17-2.325h-5.829l-.465-3.287Z"/></g></svg>