<svg xmlns="http://www.w3.org/2000/svg" enable-background="new 0 0 512 512" viewBox="0 0 512 512"><path fill="#ffc970" d="M299,163h158l0,0c30.5-47.2,31.1-107.8,1.5-155.6L457,5h-1.5C392.1,5,336,46.1,316.9,106.6
			L299,163z"/><path fill="#ffb233" d="M339.3,62.9c-9.7,12.9-17.4,27.6-22.5,43.6L299,163h158l0,0c4.5-7,8.4-14.4,11.6-21.9
			C434,102.4,388.8,75.5,339.3,62.9z"/><path fill="#d7d5c1" d="M299,163h158l0,0c30.5-47.2,31.1-107.8,1.5-155.6L457,5L299,163z"/><path fill="#ffc970" d="M213,163H55l0,0C24.5,115.8,23.9,55.2,53.5,7.4L55,5h1.5C119.9,5,176,46.1,195.1,106.6
			L213,163z"/><path fill="#ffb233" d="M195.1,106.6c-5.1-16-12.8-30.7-22.5-43.6C123.2,75.5,78,102.4,43.4,141.1
			c3.2,7.5,7.1,14.9,11.6,21.9l0,0h158L195.1,106.6z"/><path fill="#d7d5c1" d="M213,163H55l0,0C24.5,115.8,23.9,55.2,53.5,7.4L55,5L213,163z"/><path fill="#ffc970" d="M372.3,487.4L372.3,487.4c-34.6,12.9-71.2,19.6-108.1,19.6h-16.3
			c-36.9,0-73.6-6.6-108.1-19.6l0,0C58.7,457.1,5,379.7,5,293.2v0c0-50.4,18.3-99,51.6-136.9l0,0C102,104.6,167.4,75,236.2,75h39.6
			c68.8,0,134.2,29.6,179.6,81.3l0,0c33.3,37.9,51.6,86.5,51.6,136.9v0C507,379.7,453.3,457.1,372.3,487.4z"/><path fill="#ffb233" d="M372.3,445.4L372.3,445.4c-34.6,12.9-71.2,19.6-108.1,19.6h-16.3
			c-36.9,0-73.6-6.6-108.1-19.6l0,0C65.3,417.6,14,350,6.1,272.2C5.4,279.2,5,286.1,5,293.2v0c0,86.5,53.7,163.9,134.7,194.3l0,0
			c34.6,12.9,71.2,19.6,108.1,19.6h16.3c36.9,0,73.6-6.6,108.1-19.6l0,0c81-30.3,134.7-107.7,134.7-194.3v0c0-7-0.4-14-1.1-20.9
			C498,350,446.7,417.6,372.3,445.4z"/><path fill="#ebeae0" d="M256,240L256,240c-12.4,0-23.9,6.5-30.2,17.2l-8.4,14.1c-6.5,11-18.4,17.7-31.1,17.7h0
			c-20,0-36.2,16.2-36.2,36.2v165.8c31.5,10.5,64.6,15.9,97.8,15.9h16.3c33.3,0,66.3-5.4,97.8-15.9V325.2c0-20-16.2-36.2-36.2-36.2
			h0c-12.8,0-24.6-6.7-31.1-17.7l-8.4-14.1C279.9,246.5,268.4,240,256,240z"/><path fill="#e36414" d="M231 75.1c0 38.6 11.2 69.9 25 69.9s25-31.3 25-69.9c-1.7 0-3.5-.1-5.2-.1h-39.6C234.5 75 232.7 75 231 75.1zM207.6 128.7c7.7-2.8 6.8-25.3-1.7-51.8-10.9 1.4-21.6 3.5-32.1 6.4C184.5 111.5 199.4 131.7 207.6 128.7zM306.2 77c-8.5 26.5-9.4 49-1.7 51.8 8.2 3 23.1-17.2 33.8-45.4C327.8 80.5 317 78.3 306.2 77z"/><rect width="10" height="60" x="251" y="260" fill="#b24e10"/><rect width="10" height="41.2" x="103" y="303.4" fill="#b24e10" transform="rotate(75.96 108 324.015)"/><rect width="41.2" height="10" x="87.4" y="289" fill="#b24e10" transform="rotate(14.035 108.012 294.045)"/><rect width="10" height="41.2" x="399" y="273.4" fill="#b24e10" transform="rotate(75.96 404.013 294.017)"/><rect width="41.2" height="10" x="383.4" y="319" fill="#b24e10" transform="rotate(14.035 404.056 324.053)"/><path fill="#e36414" d="M261.9,240h-11.7c-7.8,0-14.1,6.3-14.1,14.1v0c0,3.8,1.5,7.3,4.1,10L256,280l15.9-15.9
			c2.7-2.7,4.1-6.2,4.1-10v0C276,246.3,269.7,240,261.9,240z"/><path fill="#b24e10" d="M304,325h-96c-13.8,0-25-11.2-25-25h10c0,8.3,6.7,15,15,15h96c8.3,0,15-6.7,15-15h10
				C329,313.8,317.8,325,304,325z"/><path fill="#e36414" d="M9.2 334.5c2.1 10.6 5.1 20.9 8.8 30.9 25.8-10.5 43.6-24.2 40.8-31.9C56 325.9 34.7 326.6 9.2 334.5zM58.7 280.6c3.1-8.4-18.5-24-48.2-34.8 0 0 0 0 0 0-2.5 10.7-4.2 21.6-5 32.7C32.7 287.3 55.9 288.4 58.7 280.6zM501.5 245.7C501.5 245.7 501.5 245.7 501.5 245.7c-29.7 10.8-51.3 26.4-48.2 34.8 2.9 7.8 26.1 6.7 53.2-2.2C505.7 267.3 504 256.4 501.5 245.7zM453.3 333.4c-2.8 7.7 15 21.4 40.8 31.9 3.7-10 6.7-20.3 8.8-30.9C477.3 326.6 456 325.9 453.3 333.4z"/><path fill="#ebeae0" d="M48.7 152.2l20.2-21.9c21.8-23.7 25.5-58.9 9.1-86.5L55 5l-1.5 2.4C26.1 51.6 24.6 106.8 48.7 152.2zM463.3 152.2l-20.2-21.9c-21.8-23.7-25.5-58.9-9.1-86.5L457 5l1.5 2.4C485.9 51.6 487.4 106.8 463.3 152.2z"/><path fill="#d7d5c1" d="M264.2,465h-16.3c-33.3,0-66.3-5.4-97.8-15.9v42c31.5,10.5,64.6,15.9,97.8,15.9h16.3
			c33.3,0,66.3-5.4,97.8-15.9v-42C330.5,459.6,297.4,465,264.2,465z"/><rect width="336" height="20" x="88" y="200" fill="#14294d"/><path fill="#ebeae0" d="M424,150L424,150c0,13.8-11.2,25-25,25h0h0c13.8,0,25,11.2,25,25v0v0c0-13.8,11.2-25,25-25
			h0h0C435.2,175,424,163.8,424,150L424,150z"/><path fill="#14294d" d="M212,200H108v38c0,23.2,18.8,42,42,42h20c23.2,0,42-18.8,42-42V200z"/><path fill="#1f3e75" d="M118,210v28c0,17.6,14.4,32,32,32h20c17.6,0,32-14.4,32-32v-28H118z"/><path fill="#14294d" d="M404,200H300v38c0,23.2,18.8,42,42,42h20c23.2,0,42-18.8,42-42V200z"/><path fill="#1f3e75" d="M310,210v28c0,17.6,14.4,32,32,32h20c17.6,0,32-14.4,32-32v-28H310z"/><path fill="#2a539d" d="M201.2 245c.5-2.2.8-4.6.8-7v-28h-35C167 229.1 182.3 244.6 201.2 245zM345 210h-35v28c0 2.4.3 4.7.8 7C329.7 244.6 345 229.1 345 210z"/></svg>