<svg width="66" height="65" viewBox="0 0 66 65" fill="none" xmlns="http://www.w3.org/2000/svg">
<path fill-rule="evenodd" clip-rule="evenodd" d="M27 54C41.9117 54 54 41.9117 54 27C54 12.0883 41.9117 0 27 0C12.0883 0 0 12.0883 0 27C0 41.9117 12.0883 54 27 54ZM27 47C38.0457 47 47 38.0457 47 27C47 15.9543 38.0457 7 27 7C15.9543 7 7 15.9543 7 27C7 38.0457 15.9543 47 27 47Z" fill="#3B68D7"/>
<rect width="8.02845" height="25" transform="matrix(-0.707107 0.707107 0.707107 0.707107 47.6768 41.623)" fill="#3B68D7"/>
</svg>
