<svg width="206" height="46" viewBox="0 0 206 46" fill="none" xmlns="http://www.w3.org/2000/svg">
<rect x="9.82019" y="1.7037" width="32.4066" height="32.6872" fill="#84DEE6"/>
<rect x="4.91052" y="5.66582" width="32.4066" height="32.6872" fill="#23ACBB"/>
<rect y="9.62789" width="32.4066" height="32.6872" fill="#196060"/>
<path d="M53.0496 35.78C53.0496 36.44 53.5596 36.95 54.2196 36.95C54.8796 36.95 55.3596 36.44 55.3596 35.78V29.03C56.5596 30.77 58.4196 32.33 61.2996 32.33C65.0496 32.33 68.7096 29.33 68.7096 24.26V24.2C68.7096 19.1 65.0196 16.16 61.2996 16.16C58.4496 16.16 56.6196 17.75 55.3596 19.61V17.51C55.3596 16.85 54.8496 16.34 54.1896 16.34C53.5596 16.34 53.0496 16.85 53.0496 17.51V35.78ZM60.8796 30.26C57.9996 30.26 55.2696 27.86 55.2696 24.26V24.2C55.2696 20.66 57.9996 18.23 60.8796 18.23C63.8196 18.23 66.3396 20.57 66.3396 24.23V24.29C66.3396 28.04 63.8796 30.26 60.8796 30.26ZM72.5214 30.98C72.5214 31.64 73.0314 32.15 73.6914 32.15C74.3514 32.15 74.8314 31.64 74.8314 30.98V23.12C74.8314 20.21 76.8114 18.26 79.4814 18.26C82.2114 18.26 83.7714 20.06 83.7714 22.94V30.98C83.7714 31.64 84.2814 32.15 84.9414 32.15C85.5714 32.15 86.0814 31.64 86.0814 30.98V22.37C86.0814 18.68 83.8914 16.16 80.1414 16.16C77.4714 16.16 75.8514 17.51 74.8314 19.19V11.12C74.8314 10.49 74.3214 9.95 73.6614 9.95C73.0314 9.95 72.5214 10.49 72.5214 11.12V30.98ZM97.6378 32.36C102.318 32.36 105.768 28.64 105.768 24.26V24.2C105.768 19.82 102.348 16.16 97.6978 16.16C93.0178 16.16 89.5978 19.88 89.5978 24.26V24.32C89.5978 28.7 92.9878 32.36 97.6378 32.36ZM97.6978 30.29C94.4278 30.29 91.9678 27.59 91.9678 24.26V24.2C91.9678 20.93 94.2778 18.2 97.6378 18.2C100.908 18.2 103.398 20.93 103.398 24.26V24.32C103.398 27.59 101.058 30.29 97.6978 30.29ZM114.692 32.27C115.592 32.27 116.312 32.12 116.972 31.85C117.362 31.7 117.632 31.37 117.632 30.95C117.632 30.41 117.182 29.96 116.642 29.96C116.462 29.96 116.042 30.17 115.232 30.17C113.672 30.17 112.622 29.48 112.622 27.59V18.53H116.642C117.212 18.53 117.692 18.08 117.692 17.51C117.692 16.97 117.212 16.49 116.642 16.49H112.622V12.83C112.622 12.2 112.082 11.66 111.452 11.66C110.792 11.66 110.312 12.2 110.312 12.83V16.49H109.052C108.512 16.49 108.032 16.94 108.032 17.51C108.032 18.05 108.512 18.53 109.052 18.53H110.312V27.89C110.312 31.04 112.202 32.27 114.692 32.27ZM127.822 32.36C132.502 32.36 135.952 28.64 135.952 24.26V24.2C135.952 19.82 132.532 16.16 127.882 16.16C123.202 16.16 119.782 19.88 119.782 24.26V24.32C119.782 28.7 123.172 32.36 127.822 32.36ZM127.882 30.29C124.612 30.29 122.152 27.59 122.152 24.26V24.2C122.152 20.93 124.462 18.2 127.822 18.2C131.092 18.2 133.582 20.93 133.582 24.26V24.32C133.582 27.59 131.242 30.29 127.882 30.29ZM148.44 30.98C148.44 31.64 148.95 32.15 149.61 32.15C150.27 32.15 150.75 31.64 150.75 30.98V11.12C150.75 10.49 150.24 9.95 149.58 9.95C148.95 9.95 148.44 10.49 148.44 11.12V30.98ZM155.661 12.02C155.661 12.74 156.261 13.25 157.011 13.25C157.791 13.25 158.391 12.74 158.391 12.02V11.63C158.391 10.88 157.791 10.4 157.011 10.4C156.261 10.4 155.661 10.88 155.661 11.63V12.02ZM155.871 30.98C155.871 31.64 156.381 32.15 157.041 32.15C157.701 32.15 158.181 31.64 158.181 30.98V17.51C158.181 16.85 157.671 16.34 157.011 16.34C156.381 16.34 155.871 16.88 155.871 17.51V30.98ZM163.092 30.98C163.092 31.61 163.602 32.15 164.262 32.15C164.922 32.15 165.402 31.61 165.402 30.98V29.03C166.602 30.77 168.462 32.33 171.342 32.33C175.092 32.33 178.752 29.33 178.752 24.26V24.2C178.752 19.1 175.062 16.16 171.342 16.16C168.492 16.16 166.662 17.75 165.402 19.61V11.12C165.402 10.46 164.892 9.95 164.232 9.95C163.602 9.95 163.092 10.46 163.092 11.12V30.98ZM170.922 30.26C168.042 30.26 165.312 27.86 165.312 24.26V24.2C165.312 20.66 168.042 18.23 170.922 18.23C173.862 18.23 176.382 20.57 176.382 24.23V24.29C176.382 28.04 173.922 30.26 170.922 30.26ZM182.564 30.98C182.564 31.64 183.074 32.15 183.734 32.15C184.394 32.15 184.874 31.61 184.874 30.98V25.7C184.874 21.23 187.334 18.98 190.334 18.62C190.934 18.53 191.354 18.08 191.354 17.45C191.354 16.79 190.904 16.28 190.214 16.28C188.264 16.28 186.014 17.84 184.874 20.42V17.51C184.874 16.85 184.364 16.34 183.704 16.34C183.074 16.34 182.564 16.88 182.564 17.51V30.98ZM198.131 32.33C200.861 32.33 202.661 31.07 203.741 29.66V31.07C203.741 31.67 204.191 32.15 204.851 32.15C205.481 32.15 205.961 31.67 205.961 31.01V22.52C205.961 20.54 205.421 19.04 204.371 17.99C203.231 16.85 201.551 16.28 199.361 16.28C197.381 16.28 195.821 16.67 194.291 17.33C193.991 17.45 193.661 17.81 193.661 18.29C193.661 18.83 194.141 19.28 194.681 19.28C194.801 19.28 194.951 19.25 195.101 19.19C196.241 18.68 197.561 18.32 199.121 18.32C202.031 18.32 203.741 19.76 203.741 22.55V23.09C202.361 22.7 200.951 22.43 198.971 22.43C195.041 22.43 192.341 24.17 192.341 27.44V27.5C192.341 30.68 195.251 32.33 198.131 32.33ZM198.581 30.5C196.481 30.5 194.681 29.36 194.681 27.41V27.35C194.681 25.4 196.301 24.14 199.211 24.14C201.101 24.14 202.631 24.47 203.771 24.8V26.3C203.771 28.76 201.431 30.5 198.581 30.5Z" fill="#196060"/>
</svg>
